<svg width="590" height="280" viewBox="0 0 590 280" fill="none" xmlns="http://www.w3.org/2000/svg">
<rect width="590" height="280" fill="white"/>
<rect x="2" y="15" width="250" height="250" fill="white"/>
<path d="M205.62 123L157.5 56.5L180.5 33.5L198.5 78L236.66 123L205.62 123Z" fill="#0F0F0F" stroke="#0F0F0F"/>
<path fill-rule="evenodd" clip-rule="evenodd" d="M107 149H212.725L235.725 126H85.2252H84L107 149Z" fill="black"/>
<path d="M212.725 149V149.5H212.932L213.079 149.354L212.725 149ZM107 149L106.646 149.354L106.793 149.5H107V149ZM235.725 126L236.079 126.354L236.932 125.5H235.725V126ZM84 126V125.5H82.7929L83.6464 126.354L84 126ZM212.725 148.5H107V149.5H212.725V148.5ZM235.372 125.646L212.372 148.646L213.079 149.354L236.079 126.354L235.372 125.646ZM85.2252 126.5H235.725V125.5H85.2252V126.5ZM84 126.5H85.2252V125.5H84V126.5ZM83.6464 126.354L106.646 149.354L107.354 148.646L84.3536 125.646L83.6464 126.354Z" fill="black"/>
<path fill-rule="evenodd" clip-rule="evenodd" d="M184 172.478L184 186.522L207 201L207 158L184 172.478Z" fill="#0F0F0F"/>
<path d="M184 186.522L183.5 186.522L183.5 186.798L183.734 186.945L184 186.522ZM184 172.478L183.734 172.055L183.5 172.202L183.5 172.478L184 172.478ZM207 201L206.734 201.423L207.5 201.906L207.5 201L207 201ZM207 158L207.5 158L207.5 157.094L206.734 157.577L207 158ZM184.5 186.522L184.5 172.478L183.5 172.478L183.5 186.522L184.5 186.522ZM207.266 200.577L184.266 186.099L183.734 186.945L206.734 201.423L207.266 200.577ZM206.5 158L206.5 201L207.5 201L207.5 158L206.5 158ZM206.734 157.577L183.734 172.055L184.266 172.901L207.266 158.423L206.734 157.577Z" fill="#0F0F0F"/>
<path fill-rule="evenodd" clip-rule="evenodd" d="M161.415 181H183.725L206.725 158H138.415L161.415 181Z" fill="#424242"/>
<path d="M183.725 181V181.5H183.932L184.079 181.354L183.725 181ZM161.415 181L161.062 181.354L161.208 181.5H161.415V181ZM206.725 158L207.079 158.354L207.932 157.5H206.725V158ZM138.415 158V157.5H137.208L138.062 158.354L138.415 158ZM183.725 180.5H161.415V181.5H183.725V180.5ZM206.372 157.646L183.372 180.646L184.079 181.354L207.079 158.354L206.372 157.646ZM138.415 158.5H206.725V157.5H138.415V158.5ZM138.062 158.354L161.062 181.354L161.769 180.646L138.769 157.646L138.062 158.354Z" fill="#424242"/>
<path fill-rule="evenodd" clip-rule="evenodd" d="M46.9 56.3H152.625L175.625 33.3H25.1252H23.9L46.9 56.3Z" fill="#1F1F1F"/>
<path d="M152.625 56.3V56.8H152.832L152.979 56.6536L152.625 56.3ZM46.9 56.3L46.5464 56.6536L46.6929 56.8H46.9V56.3ZM175.625 33.3L175.979 33.6536L176.832 32.8H175.625V33.3ZM23.9 33.3V32.8H22.6929L23.5464 33.6536L23.9 33.3ZM152.625 55.8H46.9V56.8H152.625V55.8ZM175.272 32.9464L152.272 55.9464L152.979 56.6536L175.979 33.6536L175.272 32.9464ZM25.1252 33.8H175.625V32.8H25.1252V33.8ZM23.9 33.8H25.1252V32.8H23.9V33.8ZM23.5464 33.6536L46.5464 56.6536L47.2535 55.9464L24.2535 32.9464L23.5464 33.6536Z" fill="#1F1F1F"/>
<path d="M163.612 242.87L22.1317 101.39L22.1317 75.8683L189.134 242.87L163.612 242.87Z" fill="#313131" stroke="#313131"/>
<path d="M132.915 241.315L22.4432 130.842L21.8783 111.479L152.279 241.88L132.915 241.315Z" fill="#424242" stroke="#424242"/>
<path d="M107.182 242.007L22.0879 156.913L22.2383 141.413L122.682 241.857L107.182 242.007Z" fill="#535353" stroke="#535353"/>
<path d="M96 242L22 171V183L22.4014 242H84.5352H96Z" fill="#626262" stroke="#626262"/>
<path d="M200.504 242L23.2635 66.5269V34L69.683 94L129.683 140.42L227.004 242L200.504 242Z" fill="#2A2A2A" stroke="#2A2A2A"/>
<path d="M110 99L96 77H113L127 99H110Z" fill="white" stroke="#2A2A2A" stroke-width="10"/>
<path d="M153 99L139 77H156L170 99H153Z" fill="white" stroke="#2A2A2A" stroke-width="10"/>
<g filter="url(#filter0_d_9_303)">
<path d="M211.59 215V157.04H240.57C247.41 157.04 252.45 158.84 255.69 162.44C258.93 166.04 260.55 170.87 260.55 176.93C260.55 180.83 259.56 184.25 257.58 187.19C255.6 190.13 252.9 192.32 249.48 193.76C250.32 194.42 250.98 195.17 251.46 196.01C252 196.79 252.57 197.9 253.17 199.34L260.01 215H244.89L238.41 200.24C237.87 198.98 237.18 198.08 236.34 197.54C235.5 196.94 234.3 196.64 232.74 196.64H226.08V215H211.59ZM226.08 185.48H236.79C239.61 185.48 241.8 184.79 243.36 183.41C244.98 181.97 245.79 179.81 245.79 176.93C245.79 171.11 243 168.2 237.42 168.2H226.08V185.48ZM267.928 215V157.04H280.348L305.008 191.69V157.04H319.588V215H307.078L282.418 180.44V215H267.928ZM328.748 215V157.04H353.858C359.738 157.04 364.688 158.03 368.708 160.01C372.728 161.93 375.788 165.05 377.888 169.37C379.988 173.63 381.038 179.3 381.038 186.38C381.038 196.34 378.728 203.6 374.108 208.16C369.548 212.72 362.798 215 353.858 215H328.748ZM343.238 203.84H351.878C354.998 203.84 357.608 203.39 359.708 202.49C361.868 201.53 363.488 199.79 364.568 197.27C365.708 194.75 366.278 191.12 366.278 186.38C366.278 181.58 365.768 177.89 364.748 175.31C363.788 172.67 362.228 170.84 360.068 169.82C357.968 168.74 355.238 168.2 351.878 168.2H343.238V203.84ZM388.426 215V157.04H402.736L418.486 189.17L434.146 157.04H448.366V215H433.876V181.7L422.446 205.1H414.436L402.916 181.7V215H388.426ZM486.848 215.9C476.708 215.9 468.968 213.32 463.628 208.16C458.348 202.94 455.708 195.71 455.708 186.47C455.708 176.81 458.288 169.34 463.448 164.06C468.668 158.78 476.438 156.14 486.758 156.14C490.298 156.14 493.448 156.41 496.208 156.95C499.028 157.49 501.728 158.21 504.308 159.11V171.8C499.088 169.64 493.598 168.56 487.838 168.56C481.838 168.56 477.428 170 474.608 172.88C471.848 175.76 470.468 180.29 470.468 186.47C470.468 192.35 471.938 196.67 474.878 199.43C477.818 202.19 482.198 203.57 488.018 203.57C490.838 203.57 493.628 203.33 496.388 202.85C499.148 202.31 501.818 201.5 504.398 200.42V213.2C501.878 214.04 499.208 214.7 496.388 215.18C493.568 215.66 490.388 215.9 486.848 215.9ZM529.352 215L507.212 157.04H522.332L537.092 198.44L551.942 157.04H567.152L545.012 215H529.352Z" fill="url(#paint0_linear_9_303)"/>
</g>
<defs>
<filter id="filter0_d_9_303" x="207.59" y="156.14" width="363.562" height="67.76" filterUnits="userSpaceOnUse" color-interpolation-filters="sRGB">
<feFlood flood-opacity="0" result="BackgroundImageFix"/>
<feColorMatrix in="SourceAlpha" type="matrix" values="0 0 0 0 0 0 0 0 0 0 0 0 0 0 0 0 0 0 127 0" result="hardAlpha"/>
<feOffset dy="4"/>
<feGaussianBlur stdDeviation="2"/>
<feComposite in2="hardAlpha" operator="out"/>
<feColorMatrix type="matrix" values="0 0 0 0 0 0 0 0 0 0 0 0 0 0 0 0 0 0 0.25 0"/>
<feBlend mode="normal" in2="BackgroundImageFix" result="effect1_dropShadow_9_303"/>
<feBlend mode="normal" in="SourceGraphic" in2="effect1_dropShadow_9_303" result="shape"/>
</filter>
<linearGradient id="paint0_linear_9_303" x1="393.5" y1="116" x2="393.5" y2="260" gradientUnits="userSpaceOnUse">
<stop stop-color="#2A2A2A"/>
<stop offset="1" stop-color="#626262"/>
</linearGradient>
</defs>
</svg>
