<svg width="250" height="250" viewBox="0 0 250 250" fill="none" xmlns="http://www.w3.org/2000/svg">
<rect width="250" height="250" fill="white"/>
<path d="M203.805 108.566L155.876 42.3307L178.785 19.4223L196.713 63.745L234.721 108.566L203.805 108.566Z" fill="#6D28D9" stroke="#6D28D9"/>
<path fill-rule="evenodd" clip-rule="evenodd" d="M82.6693 111.554L105.578 134.462H210.882L233.79 111.554H83.8896H82.6693Z" fill="#5F20C1"/>
<path d="M82.6693 111.554V111.054H81.4622L82.3158 111.907L82.6693 111.554ZM105.578 134.462L105.224 134.816L105.371 134.962H105.578V134.462ZM210.882 134.462V134.962H211.089L211.235 134.816L210.882 134.462ZM233.79 111.554L234.144 111.907L234.997 111.054H233.79V111.554ZM82.3158 111.907L105.224 134.816L105.931 134.109L83.0229 111.2L82.3158 111.907ZM210.882 133.962H105.578V134.962H210.882V133.962ZM233.436 111.2L210.528 134.109L211.235 134.816L234.144 111.907L233.436 111.2ZM83.8896 112.054H233.79V111.054H83.8896V112.054ZM82.6693 112.054H83.8896V111.054H82.6693V112.054Z" fill="#5F20C1"/>
<path fill-rule="evenodd" clip-rule="evenodd" d="M182.271 157.847L182.271 171.835L205.179 186.255L205.179 143.426L182.271 157.847Z" fill="#6D28D9"/>
<path d="M182.271 171.835L181.771 171.835L181.771 172.111L182.005 172.258L182.271 171.835ZM182.271 157.847L182.005 157.424L181.771 157.571L181.771 157.847L182.271 157.847ZM205.179 186.255L204.913 186.678L205.679 187.161L205.679 186.255L205.179 186.255ZM205.179 143.426L205.679 143.426L205.679 142.521L204.913 143.003L205.179 143.426ZM182.771 171.835L182.771 157.847L181.771 157.847L181.771 171.835L182.771 171.835ZM205.446 185.832L182.537 171.411L182.005 172.258L204.913 186.678L205.446 185.832ZM204.679 143.426L204.679 186.255L205.679 186.255L205.679 143.426L204.679 143.426ZM204.913 143.003L182.005 157.424L182.537 158.27L205.446 143.849L204.913 143.003Z" fill="#6D28D9"/>
<path fill-rule="evenodd" clip-rule="evenodd" d="M136.868 143.426L159.776 166.335H181.997L204.906 143.426H136.868Z" fill="#5B21B6"/>
<path d="M136.868 143.426V142.926H135.661L136.514 143.78L136.868 143.426ZM159.776 166.335L159.423 166.688L159.569 166.835H159.776V166.335ZM181.997 166.335V166.835H182.204L182.351 166.688L181.997 166.335ZM204.906 143.426L205.259 143.78L206.113 142.926H204.906V143.426ZM136.514 143.78L159.423 166.688L160.13 165.981L137.221 143.073L136.514 143.78ZM181.997 165.835H159.776V166.835H181.997V165.835ZM204.552 143.073L181.644 165.981L182.351 166.688L205.259 143.78L204.552 143.073ZM136.868 143.926H204.906V142.926H136.868V143.926Z" fill="#5B21B6"/>
<path fill-rule="evenodd" clip-rule="evenodd" d="M22.8088 19.2231L45.7171 42.1315H151.021L173.929 19.2231H24.029H22.8088Z" fill="#6D28D9"/>
<path d="M22.8088 19.2231V18.7231H21.6017L22.4552 19.5767L22.8088 19.2231ZM45.7171 42.1315L45.3636 42.485L45.51 42.6315H45.7171V42.1315ZM151.021 42.1315V42.6315H151.228L151.375 42.485L151.021 42.1315ZM173.929 19.2231L174.283 19.5767L175.137 18.7231H173.929V19.2231ZM22.4552 19.5767L45.3636 42.485L46.0707 41.7779L23.1623 18.8696L22.4552 19.5767ZM151.021 41.6315H45.7171V42.6315H151.021V41.6315ZM173.576 18.8696L150.667 41.7779L151.375 42.485L174.283 19.5767L173.576 18.8696ZM24.029 19.7231H173.929V18.7231H24.029V19.7231ZM22.8088 19.7231H24.029V18.7231H22.8088V19.7231Z" fill="#6D28D9"/>
<path d="M161.964 227.959L21.0475 87.042L21.0475 61.6218L187.384 227.959L161.964 227.959Z" fill="#5F20C1" stroke="#5F20C1"/>
<path d="M131.39 226.409L21.3578 116.377L20.7952 97.0907L150.676 226.972L131.39 226.409Z" fill="#5B21B6" stroke="#5B21B6"/>
<path d="M105.759 227.099L21.0039 142.344L21.1537 126.905L121.197 226.949L105.759 227.099Z" fill="#4C1D95" stroke="#4C1D95"/>
<path d="M94.6215 227.092L20.9163 156.374V168.327L21.3161 227.092H83.2024H94.6215Z" fill="#3F187B" stroke="#3F187B"/>
<path d="M198.709 227.092L22.1748 52.3176L22.1748 19.9203L68.4094 79.6813L128.17 125.916L225.104 227.092L198.709 227.092Z" fill="#6D28D9" stroke="#6D28D9"/>
<path d="M108.566 84.6614L94.6215 62.749H111.554L125.498 84.6614H108.566Z" fill="white" stroke="#5F20C1" stroke-width="10"/>
<path d="M151.394 84.6614L137.45 62.749H154.382L168.327 84.6614H151.394Z" fill="white" stroke="#5F20C1" stroke-width="10"/>
</svg>
