<svg width="590" height="280" viewBox="0 0 590 280" fill="none" xmlns="http://www.w3.org/2000/svg">
<rect width="590" height="280" fill="white"/>
<rect y="15" width="250" height="250" fill="white"/>
<path d="M203.805 123.566L155.876 57.3307L178.785 34.4223L196.713 78.745L234.721 123.566L203.805 123.566Z" fill="#6D28D9" stroke="#6D28D9"/>
<path fill-rule="evenodd" clip-rule="evenodd" d="M82.6693 126.554L105.578 149.462H210.882L233.79 126.554H83.8896H82.6693Z" fill="#5F20C1"/>
<path d="M82.6693 126.554V126.054H81.4622L82.3158 126.907L82.6693 126.554ZM105.578 149.462L105.224 149.816L105.371 149.962H105.578V149.462ZM210.882 149.462V149.962H211.089L211.235 149.816L210.882 149.462ZM233.79 126.554L234.144 126.907L234.997 126.054H233.79V126.554ZM82.3158 126.907L105.224 149.816L105.931 149.109L83.0229 126.2L82.3158 126.907ZM210.882 148.962H105.578V149.962H210.882V148.962ZM233.436 126.2L210.528 149.109L211.235 149.816L234.144 126.907L233.436 126.2ZM83.8896 127.054H233.79V126.054H83.8896V127.054ZM82.6693 127.054H83.8896V126.054H82.6693V127.054Z" fill="#5F20C1"/>
<path fill-rule="evenodd" clip-rule="evenodd" d="M182.271 172.847L182.271 186.835L205.179 201.255L205.179 158.426L182.271 172.847Z" fill="#6D28D9"/>
<path d="M182.271 186.835L181.771 186.835L181.771 187.111L182.005 187.258L182.271 186.835ZM182.271 172.847L182.005 172.424L181.771 172.571L181.771 172.847L182.271 172.847ZM205.179 201.255L204.913 201.678L205.679 202.161L205.679 201.255L205.179 201.255ZM205.179 158.426L205.679 158.426L205.679 157.521L204.913 158.003L205.179 158.426ZM182.771 186.835L182.771 172.847L181.771 172.847L181.771 186.835L182.771 186.835ZM205.446 200.832L182.537 186.411L182.005 187.258L204.913 201.678L205.446 200.832ZM204.679 158.426L204.679 201.255L205.679 201.255L205.679 158.426L204.679 158.426ZM204.913 158.003L182.005 172.424L182.537 173.27L205.446 158.849L204.913 158.003Z" fill="#6D28D9"/>
<path fill-rule="evenodd" clip-rule="evenodd" d="M136.868 158.426L159.776 181.335H181.997L204.906 158.426H136.868Z" fill="#5B21B6"/>
<path d="M136.868 158.426V157.926H135.661L136.514 158.78L136.868 158.426ZM159.776 181.335L159.423 181.688L159.569 181.835H159.776V181.335ZM181.997 181.335V181.835H182.204L182.351 181.688L181.997 181.335ZM204.906 158.426L205.259 158.78L206.113 157.926H204.906V158.426ZM136.514 158.78L159.423 181.688L160.13 180.981L137.221 158.073L136.514 158.78ZM181.997 180.835H159.776V181.835H181.997V180.835ZM204.552 158.073L181.644 180.981L182.351 181.688L205.259 158.78L204.552 158.073ZM136.868 158.926H204.906V157.926H136.868V158.926Z" fill="#5B21B6"/>
<path fill-rule="evenodd" clip-rule="evenodd" d="M22.8088 34.2231L45.7171 57.1315H151.021L173.929 34.2231H24.029H22.8088Z" fill="#6D28D9"/>
<path d="M22.8088 34.2231V33.7231H21.6017L22.4552 34.5767L22.8088 34.2231ZM45.7171 57.1315L45.3636 57.485L45.51 57.6315H45.7171V57.1315ZM151.021 57.1315V57.6315H151.228L151.375 57.485L151.021 57.1315ZM173.929 34.2231L174.283 34.5767L175.137 33.7231H173.929V34.2231ZM22.4552 34.5767L45.3636 57.485L46.0707 56.7779L23.1623 33.8696L22.4552 34.5767ZM151.021 56.6315H45.7171V57.6315H151.021V56.6315ZM173.576 33.8696L150.667 56.7779L151.375 57.485L174.283 34.5767L173.576 33.8696ZM24.029 34.7231H173.929V33.7231H24.029V34.7231ZM22.8088 34.7231H24.029V33.7231H22.8088V34.7231Z" fill="#6D28D9"/>
<path d="M161.964 242.959L21.0475 102.042L21.0475 76.6218L187.384 242.959L161.964 242.959Z" fill="#5F20C1" stroke="#5F20C1"/>
<path d="M131.39 241.409L21.3578 131.377L20.7952 112.091L150.676 241.972L131.39 241.409Z" fill="#5B21B6" stroke="#5B21B6"/>
<path d="M105.759 242.099L21.0039 157.344L21.1537 141.905L121.197 241.949L105.759 242.099Z" fill="#4C1D95" stroke="#4C1D95"/>
<path d="M94.6215 242.092L20.9163 171.375V183.327L21.3161 242.092H83.2024H94.6215Z" fill="#3F187B" stroke="#3F187B"/>
<path d="M198.709 242.092L22.1748 67.3176L22.1748 34.9203L68.4094 94.6813L128.17 140.916L225.104 242.092L198.709 242.092Z" fill="#6D28D9" stroke="#6D28D9"/>
<path d="M108.566 99.6614L94.6215 77.749H111.554L125.498 99.6614H108.566Z" fill="white" stroke="#5F20C1" stroke-width="10"/>
<path d="M151.394 99.6614L137.45 77.749H154.382L168.327 99.6614H151.394Z" fill="white" stroke="#5F20C1" stroke-width="10"/>
<g filter="url(#filter0_d_9_250)">
<path d="M209.59 215V157.04H238.57C245.41 157.04 250.45 158.84 253.69 162.44C256.93 166.04 258.55 170.87 258.55 176.93C258.55 180.83 257.56 184.25 255.58 187.19C253.6 190.13 250.9 192.32 247.48 193.76C248.32 194.42 248.98 195.17 249.46 196.01C250 196.79 250.57 197.9 251.17 199.34L258.01 215H242.89L236.41 200.24C235.87 198.98 235.18 198.08 234.34 197.54C233.5 196.94 232.3 196.64 230.74 196.64H224.08V215H209.59ZM224.08 185.48H234.79C237.61 185.48 239.8 184.79 241.36 183.41C242.98 181.97 243.79 179.81 243.79 176.93C243.79 171.11 241 168.2 235.42 168.2H224.08V185.48ZM265.928 215V157.04H278.348L303.008 191.69V157.04H317.588V215H305.078L280.418 180.44V215H265.928ZM326.748 215V157.04H351.858C357.738 157.04 362.688 158.03 366.708 160.01C370.728 161.93 373.788 165.05 375.888 169.37C377.988 173.63 379.038 179.3 379.038 186.38C379.038 196.34 376.728 203.6 372.108 208.16C367.548 212.72 360.798 215 351.858 215H326.748ZM341.238 203.84H349.878C352.998 203.84 355.608 203.39 357.708 202.49C359.868 201.53 361.488 199.79 362.568 197.27C363.708 194.75 364.278 191.12 364.278 186.38C364.278 181.58 363.768 177.89 362.748 175.31C361.788 172.67 360.228 170.84 358.068 169.82C355.968 168.74 353.238 168.2 349.878 168.2H341.238V203.84ZM386.426 215V157.04H400.736L416.486 189.17L432.146 157.04H446.366V215H431.876V181.7L420.446 205.1H412.436L400.916 181.7V215H386.426ZM484.848 215.9C474.708 215.9 466.968 213.32 461.628 208.16C456.348 202.94 453.708 195.71 453.708 186.47C453.708 176.81 456.288 169.34 461.448 164.06C466.668 158.78 474.438 156.14 484.758 156.14C488.298 156.14 491.448 156.41 494.208 156.95C497.028 157.49 499.728 158.21 502.308 159.11V171.8C497.088 169.64 491.598 168.56 485.838 168.56C479.838 168.56 475.428 170 472.608 172.88C469.848 175.76 468.468 180.29 468.468 186.47C468.468 192.35 469.938 196.67 472.878 199.43C475.818 202.19 480.198 203.57 486.018 203.57C488.838 203.57 491.628 203.33 494.388 202.85C497.148 202.31 499.818 201.5 502.398 200.42V213.2C499.878 214.04 497.208 214.7 494.388 215.18C491.568 215.66 488.388 215.9 484.848 215.9ZM527.352 215L505.212 157.04H520.332L535.092 198.44L549.942 157.04H565.152L543.012 215H527.352Z" fill="url(#paint0_linear_9_250)"/>
</g>
<defs>
<filter id="filter0_d_9_250" x="205.59" y="156.14" width="363.562" height="67.76" filterUnits="userSpaceOnUse" color-interpolation-filters="sRGB">
<feFlood flood-opacity="0" result="BackgroundImageFix"/>
<feColorMatrix in="SourceAlpha" type="matrix" values="0 0 0 0 0 0 0 0 0 0 0 0 0 0 0 0 0 0 127 0" result="hardAlpha"/>
<feOffset dy="4"/>
<feGaussianBlur stdDeviation="2"/>
<feComposite in2="hardAlpha" operator="out"/>
<feColorMatrix type="matrix" values="0 0 0 0 0 0 0 0 0 0 0 0 0 0 0 0 0 0 0.25 0"/>
<feBlend mode="normal" in2="BackgroundImageFix" result="effect1_dropShadow_9_250"/>
<feBlend mode="normal" in="SourceGraphic" in2="effect1_dropShadow_9_250" result="shape"/>
</filter>
<linearGradient id="paint0_linear_9_250" x1="391.5" y1="116" x2="391.5" y2="260" gradientUnits="userSpaceOnUse">
<stop stop-color="#6D28D9"/>
<stop offset="1" stop-color="#3F187B"/>
</linearGradient>
</defs>
</svg>
