<svg width="250" height="250" viewBox="0 0 250 250" fill="none" xmlns="http://www.w3.org/2000/svg">
<rect width="250" height="250" fill="black"/>
<path d="M203.62 108L155.5 41.5L178.5 18.5L196.5 63L234.66 108L203.62 108Z" fill="white" stroke="white"/>
<path fill-rule="evenodd" clip-rule="evenodd" d="M105 134H210.725L233.725 111H83.2252H82L105 134Z" fill="#ECECEC"/>
<path d="M210.725 134V134.5H210.932L211.079 134.354L210.725 134ZM105 134L104.646 134.354L104.793 134.5H105V134ZM233.725 111L234.079 111.354L234.932 110.5H233.725V111ZM82 111V110.5H80.7929L81.6464 111.354L82 111ZM210.725 133.5H105V134.5H210.725V133.5ZM233.372 110.646L210.372 133.646L211.079 134.354L234.079 111.354L233.372 110.646ZM83.2252 111.5H233.725V110.5H83.2252V111.5ZM82 111.5H83.2252V110.5H82V111.5ZM81.6464 111.354L104.646 134.354L105.354 133.646L82.3536 110.646L81.6464 111.354Z" fill="#ECECEC"/>
<path fill-rule="evenodd" clip-rule="evenodd" d="M182 157.478L182 171.522L205 186L205 143L182 157.478Z" fill="white"/>
<path d="M182 171.522L181.5 171.522L181.5 171.798L181.734 171.945L182 171.522ZM182 157.478L181.734 157.055L181.5 157.202L181.5 157.478L182 157.478ZM205 186L204.734 186.423L205.5 186.906L205.5 186L205 186ZM205 143L205.5 143L205.5 142.094L204.734 142.577L205 143ZM182.5 171.522L182.5 157.478L181.5 157.478L181.5 171.522L182.5 171.522ZM205.266 185.577L182.266 171.099L181.734 171.945L204.734 186.423L205.266 185.577ZM204.5 143L204.5 186L205.5 186L205.5 143L204.5 143ZM204.734 142.577L181.734 157.055L182.266 157.901L205.266 143.423L204.734 142.577Z" fill="white"/>
<path fill-rule="evenodd" clip-rule="evenodd" d="M159.415 166H181.725L204.725 143H136.415L159.415 166Z" fill="#D0CFCF"/>
<path d="M181.725 166V166.5H181.932L182.079 166.354L181.725 166ZM159.415 166L159.062 166.354L159.208 166.5H159.415V166ZM204.725 143L205.079 143.354L205.932 142.5H204.725V143ZM136.415 143V142.5H135.208L136.062 143.354L136.415 143ZM181.725 165.5H159.415V166.5H181.725V165.5ZM204.372 142.646L181.372 165.646L182.079 166.354L205.079 143.354L204.372 142.646ZM136.415 143.5H204.725V142.5H136.415V143.5ZM136.062 143.354L159.062 166.354L159.769 165.646L136.769 142.646L136.062 143.354Z" fill="#D0CFCF"/>
<path fill-rule="evenodd" clip-rule="evenodd" d="M44.9 41.3H150.625L173.625 18.3H23.1252H21.9L44.9 41.3Z" fill="#ECECEC"/>
<path d="M150.625 41.3V41.8H150.832L150.979 41.6536L150.625 41.3ZM44.9 41.3L44.5464 41.6536L44.6929 41.8H44.9V41.3ZM173.625 18.3L173.979 18.6536L174.832 17.8H173.625V18.3ZM21.9 18.3V17.8H20.6929L21.5464 18.6536L21.9 18.3ZM150.625 40.8H44.9V41.8H150.625V40.8ZM173.272 17.9464L150.272 40.9464L150.979 41.6536L173.979 18.6536L173.272 17.9464ZM23.1252 18.8H173.625V17.8H23.1252V18.8ZM21.9 18.8H23.1252V17.8H21.9V18.8ZM21.5464 18.6536L44.5464 41.6536L45.2535 40.9464L22.2535 17.9464L21.5464 18.6536Z" fill="#ECECEC"/>
<path d="M161.612 227.87L20.1317 86.3902L20.1317 60.8683L187.134 227.87L161.612 227.87Z" fill="#E7E6E6" stroke="#E7E6E6"/>
<path d="M130.915 226.315L20.4432 115.842L19.8783 96.479L150.279 226.88L130.915 226.315Z" fill="#D0CFCF" stroke="#D0CFCF"/>
<path d="M105.182 227.007L20.0879 141.913L20.2383 126.413L120.682 226.857L105.182 227.007Z" fill="#BEBEBE" stroke="#BEBEBE"/>
<path d="M94 227L20 156V168L20.4014 227H82.5352H94Z" fill="#B4B2B2" stroke="#B4B2B2"/>
<path d="M198.504 227L21.2635 51.5269V19L67.683 79L127.683 125.42L225.004 227L198.504 227Z" fill="white" stroke="white"/>
<path d="M108 84L94 62H111L125 84H108Z" fill="#393939" stroke="white" stroke-width="10"/>
<path d="M151 84L137 62H154L168 84H151Z" fill="#393939" stroke="white" stroke-width="10"/>
</svg>
