<svg width="590" height="280" viewBox="0 0 590 280" fill="none" xmlns="http://www.w3.org/2000/svg">
<rect width="590" height="280" fill="black"/>
<rect x="2" y="14" width="250" height="250" fill="black"/>
<path d="M205.62 122L157.5 55.5L180.5 32.5L198.5 77L236.66 122L205.62 122Z" fill="white" stroke="white"/>
<path fill-rule="evenodd" clip-rule="evenodd" d="M107 148H212.725L235.725 125H85.2252H84L107 148Z" fill="#ECECEC"/>
<path d="M212.725 148V148.5H212.932L213.079 148.354L212.725 148ZM107 148L106.646 148.354L106.793 148.5H107V148ZM235.725 125L236.079 125.354L236.932 124.5H235.725V125ZM84 125V124.5H82.7929L83.6464 125.354L84 125ZM212.725 147.5H107V148.5H212.725V147.5ZM235.372 124.646L212.372 147.646L213.079 148.354L236.079 125.354L235.372 124.646ZM85.2252 125.5H235.725V124.5H85.2252V125.5ZM84 125.5H85.2252V124.5H84V125.5ZM83.6464 125.354L106.646 148.354L107.354 147.646L84.3536 124.646L83.6464 125.354Z" fill="#ECECEC"/>
<path fill-rule="evenodd" clip-rule="evenodd" d="M184 171.478L184 185.522L207 200L207 157L184 171.478Z" fill="white"/>
<path d="M184 185.522L183.5 185.522L183.5 185.798L183.734 185.945L184 185.522ZM184 171.478L183.734 171.055L183.5 171.202L183.5 171.478L184 171.478ZM207 200L206.734 200.423L207.5 200.906L207.5 200L207 200ZM207 157L207.5 157L207.5 156.094L206.734 156.577L207 157ZM184.5 185.522L184.5 171.478L183.5 171.478L183.5 185.522L184.5 185.522ZM207.266 199.577L184.266 185.099L183.734 185.945L206.734 200.423L207.266 199.577ZM206.5 157L206.5 200L207.5 200L207.5 157L206.5 157ZM206.734 156.577L183.734 171.055L184.266 171.901L207.266 157.423L206.734 156.577Z" fill="white"/>
<path fill-rule="evenodd" clip-rule="evenodd" d="M161.415 180H183.725L206.725 157H138.415L161.415 180Z" fill="#D0CFCF"/>
<path d="M183.725 180V180.5H183.932L184.079 180.354L183.725 180ZM161.415 180L161.062 180.354L161.208 180.5H161.415V180ZM206.725 157L207.079 157.354L207.932 156.5H206.725V157ZM138.415 157V156.5H137.208L138.062 157.354L138.415 157ZM183.725 179.5H161.415V180.5H183.725V179.5ZM206.372 156.646L183.372 179.646L184.079 180.354L207.079 157.354L206.372 156.646ZM138.415 157.5H206.725V156.5H138.415V157.5ZM138.062 157.354L161.062 180.354L161.769 179.646L138.769 156.646L138.062 157.354Z" fill="#D0CFCF"/>
<path fill-rule="evenodd" clip-rule="evenodd" d="M46.9 55.3H152.625L175.625 32.3H25.1252H23.9L46.9 55.3Z" fill="#ECECEC"/>
<path d="M152.625 55.3V55.8H152.832L152.979 55.6536L152.625 55.3ZM46.9 55.3L46.5465 55.6536L46.6929 55.8H46.9V55.3ZM175.625 32.3L175.979 32.6536L176.832 31.8H175.625V32.3ZM23.9 32.3V31.8H22.6929L23.5465 32.6536L23.9 32.3ZM152.625 54.8H46.9V55.8H152.625V54.8ZM175.272 31.9464L152.272 54.9464L152.979 55.6536L175.979 32.6536L175.272 31.9464ZM25.1252 32.8H175.625V31.8H25.1252V32.8ZM23.9 32.8H25.1252V31.8H23.9V32.8ZM23.5465 32.6536L46.5465 55.6536L47.2536 54.9464L24.2536 31.9464L23.5465 32.6536Z" fill="#ECECEC"/>
<path d="M163.612 241.87L22.1317 100.39L22.1317 74.8683L189.134 241.87L163.612 241.87Z" fill="#E7E6E6" stroke="#E7E6E6"/>
<path d="M132.915 240.315L22.4432 129.842L21.8783 110.479L152.279 240.88L132.915 240.315Z" fill="#D0CFCF" stroke="#D0CFCF"/>
<path d="M107.182 241.007L22.0879 155.913L22.2383 140.413L122.682 240.857L107.182 241.007Z" fill="#BEBEBE" stroke="#BEBEBE"/>
<path d="M96 241L22 170V182L22.4014 241H84.5352H96Z" fill="#B4B2B2" stroke="#B4B2B2"/>
<path d="M200.504 241L23.2634 65.5269V33L69.683 93L129.683 139.42L227.004 241L200.504 241Z" fill="white" stroke="white"/>
<path d="M110 98L96 76H113L127 98H110Z" fill="#393939" stroke="white" stroke-width="10"/>
<path d="M153 98L139 76H156L170 98H153Z" fill="#393939" stroke="white" stroke-width="10"/>
<g filter="url(#filter0_d_9_304)">
<path d="M211.59 215V157.04H240.57C247.41 157.04 252.45 158.84 255.69 162.44C258.93 166.04 260.55 170.87 260.55 176.93C260.55 180.83 259.56 184.25 257.58 187.19C255.6 190.13 252.9 192.32 249.48 193.76C250.32 194.42 250.98 195.17 251.46 196.01C252 196.79 252.57 197.9 253.17 199.34L260.01 215H244.89L238.41 200.24C237.87 198.98 237.18 198.08 236.34 197.54C235.5 196.94 234.3 196.64 232.74 196.64H226.08V215H211.59ZM226.08 185.48H236.79C239.61 185.48 241.8 184.79 243.36 183.41C244.98 181.97 245.79 179.81 245.79 176.93C245.79 171.11 243 168.2 237.42 168.2H226.08V185.48ZM267.928 215V157.04H280.348L305.008 191.69V157.04H319.588V215H307.078L282.418 180.44V215H267.928ZM328.748 215V157.04H353.858C359.738 157.04 364.688 158.03 368.708 160.01C372.728 161.93 375.788 165.05 377.888 169.37C379.988 173.63 381.038 179.3 381.038 186.38C381.038 196.34 378.728 203.6 374.108 208.16C369.548 212.72 362.798 215 353.858 215H328.748ZM343.238 203.84H351.878C354.998 203.84 357.608 203.39 359.708 202.49C361.868 201.53 363.488 199.79 364.568 197.27C365.708 194.75 366.278 191.12 366.278 186.38C366.278 181.58 365.768 177.89 364.748 175.31C363.788 172.67 362.228 170.84 360.068 169.82C357.968 168.74 355.238 168.2 351.878 168.2H343.238V203.84ZM388.426 215V157.04H402.736L418.486 189.17L434.146 157.04H448.366V215H433.876V181.7L422.446 205.1H414.436L402.916 181.7V215H388.426ZM486.848 215.9C476.708 215.9 468.968 213.32 463.628 208.16C458.348 202.94 455.708 195.71 455.708 186.47C455.708 176.81 458.288 169.34 463.448 164.06C468.668 158.78 476.438 156.14 486.758 156.14C490.298 156.14 493.448 156.41 496.208 156.95C499.028 157.49 501.728 158.21 504.308 159.11V171.8C499.088 169.64 493.598 168.56 487.838 168.56C481.838 168.56 477.428 170 474.608 172.88C471.848 175.76 470.468 180.29 470.468 186.47C470.468 192.35 471.938 196.67 474.878 199.43C477.818 202.19 482.198 203.57 488.018 203.57C490.838 203.57 493.628 203.33 496.388 202.85C499.148 202.31 501.818 201.5 504.398 200.42V213.2C501.878 214.04 499.208 214.7 496.388 215.18C493.568 215.66 490.388 215.9 486.848 215.9ZM529.352 215L507.212 157.04H522.332L537.092 198.44L551.942 157.04H567.152L545.012 215H529.352Z" fill="url(#paint0_linear_9_304)"/>
</g>
<defs>
<filter id="filter0_d_9_304" x="207.59" y="156.14" width="363.562" height="67.76" filterUnits="userSpaceOnUse" color-interpolation-filters="sRGB">
<feFlood flood-opacity="0" result="BackgroundImageFix"/>
<feColorMatrix in="SourceAlpha" type="matrix" values="0 0 0 0 0 0 0 0 0 0 0 0 0 0 0 0 0 0 127 0" result="hardAlpha"/>
<feOffset dy="4"/>
<feGaussianBlur stdDeviation="2"/>
<feComposite in2="hardAlpha" operator="out"/>
<feColorMatrix type="matrix" values="0 0 0 0 0 0 0 0 0 0 0 0 0 0 0 0 0 0 0.25 0"/>
<feBlend mode="normal" in2="BackgroundImageFix" result="effect1_dropShadow_9_304"/>
<feBlend mode="normal" in="SourceGraphic" in2="effect1_dropShadow_9_304" result="shape"/>
</filter>
<linearGradient id="paint0_linear_9_304" x1="393.5" y1="116" x2="393.5" y2="260" gradientUnits="userSpaceOnUse">
<stop stop-color="white"/>
<stop offset="1" stop-color="#B4B2B2"/>
</linearGradient>
</defs>
</svg>
