<svg xmlns="http://www.w3.org/2000/svg" data-name="Layer 1" viewBox="0 0 512 640" x="0px" y="0px"><path d="M501.22681,255.34875a18.22159,18.22159,0,0,0-22.06568-13.30993l-69.42944,17.18445a6.82541,6.82541,0,0,0,.42725,13.3424l45.3496,8.1875q-2.592,2.61805-5.17895,5.24012l-9.19531,9.491q-9.163,9.51728-18.16724,19.16565-9.01941,9.63556-17.9248,19.36572l-8.88477,9.74769c-1.53979,1.71667-2.80225,3.00647-4.2373,4.46923q-2.14161,2.16834-4.3313,4.1908a89.21611,89.21611,0,0,1-8.83741,7.2251,41.09465,41.09465,0,0,1-4.32641,2.69214,22.00654,22.00654,0,0,1-3.83276,1.67163,7.87619,7.87619,0,0,1-2.09083.425c-.0249-.0459-.09375-.13648-.23046-.3335a10.7944,10.7944,0,0,1-1.15039-2.49622,28.89021,28.89021,0,0,1-1.02832-4.17578c-.249-1.59692-.44629-3.28943-.55152-5.07055a85.44659,85.44659,0,0,1,.10523-11.28235,172.8974,172.8974,0,0,1,3.64917-23.98316c1.78369-8.08093,3.92871-16.204,6.44482-24.259,2.45605-8.07983,5.27222-16.09668,8.25488-24.08594,1.4834-4.00427,3.07666-7.94568,4.67285-11.94739,1.69263-4.19848,3.34571-8.43823,4.91407-12.807a139.83461,139.83461,0,0,0,4.27783-13.895c.30444-1.28992.59692-2.59924.84228-4.07617a35.45208,35.45208,0,0,0,.52124-5.08692c.00831-.52392.0149-1.03454-.02172-1.67859-.01783-.3164-.02662-.584-.06177-.93933l-.13062-1.08264a16.00327,16.00327,0,0,0-2.15991-6.11328,15.40272,15.40272,0,0,0-1.5144-2.03076,14.32854,14.32854,0,0,0-2.12647-1.92578,13.645,13.645,0,0,0-2.53418-1.46656,13.49817,13.49817,0,0,0-2.54761-.84582,15.00389,15.00389,0,0,0-7.00463.11706,19.87961,19.87961,0,0,0-3.60035,1.29407,26.82075,26.82075,0,0,0-2.46826,1.3147,42.1164,42.1164,0,0,0-3.70508,2.52063c-2.18872,1.65076-4.033,3.26782-5.83252,4.89319-3.55151,3.24475-6.77441,6.49878-9.92578,9.77478-6.28076,6.54577-12.22241,13.15906-18.11328,19.79089-11.75732,13.26062-23.3042,26.5271-35.11523,39.51514-5.87329,6.52075-11.85987,12.91907-17.86011,19.28515-6.05444,6.313-12.12549,12.59424-18.36352,18.67322-6.23121,6.08411-12.53687,12.06421-19.041,17.74561-3.24072,2.8468-6.52539,5.6438-9.83008,8.33874a68.8669,68.8669,0,0,1-9.62842,6.70838,21.55744,21.55744,0,0,1-2.9187,1.36364,25.30166,25.30166,0,0,1-.29394-4.16662,81.02773,81.02773,0,0,1,1.06616-11.77735c.62939-4.1,1.43091-8.27441,2.30444-12.4663,3.58521-16.80323,8.26294-33.7959,12.54615-51.05689,2.1538-8.64136,4.22387-17.36938,6.02539-26.28784a243.31947,243.31947,0,0,0,4.15722-27.62756,114.33927,114.33927,0,0,0,.33667-15.01355,58.92123,58.92123,0,0,0-3.11279-17.04053,37.84012,37.84012,0,0,0-5.01-9.60047,33.61692,33.61692,0,0,0-4.14185-4.641,31.65868,31.65868,0,0,0-5.24511-3.88928,29.14622,29.14622,0,0,0-6.42432-2.81079,26.38311,26.38311,0,0,0-8.03857-1.05469,26.04937,26.04937,0,0,0-7.97437,1.46582,30.882,30.882,0,0,0-6.314,3.08216,41.15882,41.15882,0,0,0-8.25171,7.13623,63.71928,63.71928,0,0,0-5.41382,6.95874,121.71193,121.71193,0,0,0-7.69043,13.27c-4.37232,8.67443-7.82715,17.19519-11.15552,25.65844-3.24194,8.48023-6.2605,16.89917-9.17749,25.28846q-4.3048,12.6057-8.478,25.08276c-5.54345,16.65649-10.7456,33.26233-16.00781,49.76428-5.272,16.49353-10.5791,32.90625-16.71167,48.93018a310.37308,310.37308,0,0,1-21.61059,46.2539c-8.50342,14.57788-18.64527,28.08814-30.58106,39.2544-5.91675,5.48828-12.614,10.86169-18.61279,13.80249a18.96775,18.96775,0,0,1-4.00586,1.51514,4.02318,4.02318,0,0,1-1.91626.14025c-.10962-.06237.27685.09143.1189-.06042a7.77326,7.77326,0,0,1-1.04541-1.94519,34.08537,34.08537,0,0,1-1.93311-9.45532,94.98428,94.98428,0,0,1-.238-11.76856,240.06614,240.06614,0,0,1,2.36865-24.9624c2.40406-16.86829,5.85376-33.86438,9.44654-50.85742,3.63354-16.99781,7.48022-34.02759,11.3313-51.0929,7.67993-34.14367,15.94751-68.292,24.15332-102.5271q6.08971-25.69555,12.09033-51.486,2.97437-12.90344,5.84888-25.85791,2.82823-12.96753,5.44238-26.02393c1.7395-8.708,3.3999-17.45092,4.897-26.27075,1.47241-8.8269,2.885-17.701,3.75977-26.814.46631-4.54138.79858-9.14417.95923-13.8335a103.558,103.558,0,0,0-.39258-14.54382c-.14063-1.27551-.3418-2.58862-.53809-3.89038l-.41772-2.0365-.21753-1.01685-.303-1.07544c-.218-.7257-.386-1.408-.66089-2.16186q-.43506-1.14624-.90161-2.27832c-.35669-.78479-.82251-1.62122-1.25732-2.41113a11.04356,11.04356,0,0,0-.81739-1.24952q-.45447-.63445-.93213-1.25012a11.6003,11.6003,0,0,0-1.15283-1.24988q-.62732-.61888-1.2854-1.20007c-.49194-.38147-1.03345-.74548-1.56811-1.09143a10.60522,10.60522,0,0,0-1.68213-.93774,14.9719,14.9719,0,0,0-3.67115-1.18836c-.61108-.11035-1.25195-.22839-1.84228-.27356-.56909-.02222-1.14111-.02991-1.71143-.02283a19.76526,19.76526,0,0,0-5.8059,1.053,27.87255,27.87255,0,0,0-4.36841,1.92041,45.62412,45.62412,0,0,0-6.73047,4.553c-1.97241,1.59461-3.80445,3.22791-5.51514,4.89832-3.44067,3.33459-6.552,6.77319-9.52344,10.26782-5.90844,7.003-11.30566,14.195-16.42187,21.54346-10.2312,14.70459-19.58325,29.71643-28.36231,45.26062a5.31738,5.31738,0,0,0,9.03052,5.59985l.04834-.071c4.85816-7.16247,9.89624-14.36425,15.0437-21.38806C55.35522,82.10925,60.60132,75.15576,66.019,68.398c5.43311-6.73682,10.96241-13.3667,16.79224-19.48242,2.91162-3.04846,5.8977-5.97022,8.93921-8.58911,1.51684-1.32044,3.0542-2.52454,4.57007-3.61036a28.12841,28.12841,0,0,1,4.34228-2.59838,8.876,8.876,0,0,1,1.207-.49353c.00757.01794.01416.02941.02173.04882.07544.27637.16065.546.25684.81189.09155.28247.15088.68128.23681,1.01209l.12574.51794.08764.60462.18726,1.20776c.07568.88.17139,1.74927.22681,2.66406a85.57571,85.57571,0,0,1-.29908,11.83472c-.34424,4.09595-.84668,8.25928-1.48852,12.44775-1.252,8.36109-2.866,16.83716-4.65894,25.30286-1.792,8.47119-3.75976,16.953-5.8125,25.432-2.04834,8.48034-4.207,16.95605-6.38428,25.43628Q81.135,153.67389,77.7688,166.40063q-6.71228,25.45533-13.65357,50.9325c-9.09179,34.00842-18.18945,68.09351-26.46411,102.52319-4.10644,17.22412-7.86914,34.569-11.05786,52.10608-3.18384,17.54358-5.86767,35.24292-7.48315,53.3523a263.57268,263.57268,0,0,0-1.16822,27.69592,128.55239,128.55239,0,0,0,1.02955,14.58545,72.03532,72.03532,0,0,0,1.45068,7.74133,46.928,46.928,0,0,0,2.8667,8.34851,28.16456,28.16456,0,0,0,6.27856,8.93067q.587.53557,1.19092,1.05127c.40845.34179.87427.66333,1.31812.98327a22.60021,22.60021,0,0,0,2.87793,1.72681A22.06576,22.06576,0,0,0,41.29,498.389a26.57257,26.57257,0,0,0,11.15649-.7096,43.19612,43.19612,0,0,0,8.27442-3.25988,63.96573,63.96573,0,0,0,6.80029-3.99756c2.13037-1.39429,4.08423-2.86365,6.0166-4.34253,3.79907-2.913,7.3877-6.00293,10.842-9.22193C98.21655,463.985,109.58374,449.244,119.83472,434.078a492.41644,492.41644,0,0,0,27.67846-47.04748q12.49732-24.10895,22.64893-49.03833c6.75879-16.585,12.696-33.37708,18.13818-50.16284l8.04053-25.06922c2.6499-8.30737,5.29834-16.5542,8.09131-24.60827,2.73413-8.05555,5.64941-15.96546,8.81128-23.20264a91.37408,91.37408,0,0,1,4.95288-9.88611c.68555-1.15381,1.3772-2.1886,2.00757-3.059a33.21636,33.21636,0,0,1,2.02954,8.21375,85.84594,85.84594,0,0,1,.678,11.36694,217.77355,217.77355,0,0,1-1.68189,24.82226c-.98877,8.4607-2.27759,17.01478-3.67846,25.6106-1.38941,8.6023-2.97608,17.2334-4.49805,25.93945-1.57129,8.69922-3.09448,17.463-4.44922,26.39344-.66724,4.4718-1.27344,8.988-1.71606,13.62341a107.31363,107.31363,0,0,0-.55713,14.55005,39.90685,39.90685,0,0,0,1.20654,8.48083,21.86776,21.86776,0,0,0,2.05835,5.14917,15.75673,15.75673,0,0,0,5.075,5.48474,14.45429,14.45429,0,0,0,3.7959,1.75183,15.53239,15.53239,0,0,0,3.73144.5962,19.34664,19.34664,0,0,0,5.91578-.7511,34.106,34.106,0,0,0,8.02563-3.59815,90.20638,90.20638,0,0,0,11.78247-8.68445c3.46094-2.9331,6.82153-5.90759,10.13623-8.93188q9.90747-9.09649,19.39966-18.44727c6.32764-6.24572,12.61572-12.49816,18.80273-18.83142,6.24121-6.28051,12.37329-12.647,18.56006-18.94567,12.31836-12.64258,24.61792-25.27186,37.06763-37.56861,4.60132-4.52917,9.21777-9.02954,13.86157-13.391-.25732.55566-.50464,1.11023-.7644,1.666-1.88648,4.07995-3.74488,8.23486-5.51319,12.40857a306.16812,306.16812,0,0,0-17.27148,52.18151,177.66292,177.66292,0,0,0-4.22559,28.1764,110.05225,110.05225,0,0,0,.03052,15.09716,80.0287,80.0287,0,0,0,1.06543,8.0243,55.562,55.562,0,0,0,2.3606,8.56567,36.93144,36.93144,0,0,0,4.87573,9.19531,27.8323,27.8323,0,0,0,9.72388,8.314,26.53088,26.53088,0,0,0,12.84887,2.75305,33.9,33.9,0,0,0,10.55786-2.14783,46.25114,46.25114,0,0,0,8.0979-3.9281,67.424,67.424,0,0,0,6.68018-4.57922,102.34571,102.34571,0,0,0,11.12085-10.02381q2.5155-2.60724,4.87085-5.27173c1.54907-1.76977,3.26123-3.72509,4.54272-5.38562l8.23243-10.35266q8.19617-10.38372,16.30957-20.835,8.09911-10.46337,16.06714-21.035L463.281,297.0509q1.13672-1.55841,2.27905-3.11194l9.86035,39.83887a6.82552,6.82552,0,0,0,13.34253-.42724L501.4707,262.964A18.5737,18.5737,0,0,0,501.22681,255.34875ZM102.97,33.39832a.681.681,0,0,1-.21924.01123c-.00757-.004-.02392-.00428-.03247-.00769.2207-.038.34619-.03736.31323.00146A.04886.04886,0,0,1,102.97,33.39832Zm115.27,166.022c.04224-.06287.12476-.14307.45874.126.061.05921.13452.14124.2085.22547a2.69524,2.69524,0,0,1-.3064-.10681C218.25708,199.52649,218.19751,199.45691,218.24,199.42029Zm4.77319,157.18835a.567.567,0,0,1,.14136.00537C223.00464,356.62634,222.93555,356.61853,223.01318,356.60864ZM386.97925,227.59912c.09375-.0354-.06006.09094-.49243.19983l-.02442.00537c.01416-.007.03174-.0166.04566-.02319A2.0129,2.0129,0,0,1,386.97925,227.59912Zm-18.63452,136.8385c-.02246-.0011-.05957.0022-.07886.00025C367.89551,364.38965,368.11255,364.363,368.34473,364.43762Z"/></svg>