<svg width="512" height="512" viewBox="0 0 512 512" fill="none" xmlns="http://www.w3.org/2000/svg">
<rect width="512" height="512" fill="#EDEDED"/>
<path d="M135.16 298C134.221 298 133.453 297.701 132.856 297.104C132.259 296.507 131.96 295.739 131.96 294.8V211.6C131.96 210.661 132.259 209.893 132.856 209.296C133.453 208.699 134.221 208.4 135.16 208.4H169.976C180.984 208.4 189.645 210.96 195.96 216.08C202.36 221.115 205.56 228.283 205.56 237.584C205.56 243.643 204.067 248.763 201.08 252.944C198.179 257.125 194.339 260.283 189.56 262.416L207.224 293.904C207.48 294.416 207.608 294.885 207.608 295.312C207.608 295.995 207.309 296.635 206.712 297.232C206.2 297.744 205.56 298 204.792 298H187.896C186.275 298 185.08 297.616 184.312 296.848C183.544 295.995 182.989 295.227 182.648 294.544L168.056 266.384H154.872V294.8C154.872 295.739 154.573 296.507 153.976 297.104C153.379 297.701 152.611 298 151.672 298H135.16ZM154.872 248.336H169.72C173.731 248.336 176.717 247.355 178.68 245.392C180.728 243.429 181.752 240.741 181.752 237.328C181.752 234 180.771 231.312 178.808 229.264C176.931 227.216 173.901 226.192 169.72 226.192H154.872V248.336Z" fill="#484848"/>
<path d="M256.821 299.28C248.714 299.28 241.76 297.957 235.957 295.312C230.24 292.667 225.76 288.784 222.517 283.664C219.36 278.544 217.61 272.187 217.269 264.592C217.184 261.093 217.141 257.339 217.141 253.328C217.141 249.317 217.184 245.477 217.269 241.808C217.61 234.384 219.402 228.112 222.645 222.992C225.888 217.787 230.41 213.861 236.213 211.216C242.016 208.485 248.885 207.12 256.821 207.12C262.453 207.12 267.658 207.845 272.437 209.296C277.216 210.661 281.397 212.709 284.981 215.44C288.565 218.085 291.338 221.328 293.301 225.168C295.349 228.923 296.416 233.189 296.501 237.968C296.586 238.736 296.33 239.376 295.733 239.888C295.221 240.4 294.581 240.656 293.813 240.656H276.533C275.424 240.656 274.57 240.443 273.973 240.016C273.376 239.504 272.864 238.608 272.437 237.328C271.242 232.805 269.28 229.733 266.549 228.112C263.904 226.405 260.618 225.552 256.693 225.552C252 225.552 248.288 226.875 245.557 229.52C242.826 232.08 241.333 236.389 241.077 242.448C240.821 249.445 240.821 256.613 241.077 263.952C241.333 270.011 242.826 274.363 245.557 277.008C248.288 279.568 252 280.848 256.693 280.848C260.618 280.848 263.946 279.995 266.677 278.288C269.408 276.581 271.328 273.509 272.437 269.072C272.778 267.792 273.248 266.939 273.845 266.512C274.528 266 275.424 265.744 276.533 265.744H293.813C294.581 265.744 295.221 266 295.733 266.512C296.33 267.024 296.586 267.664 296.501 268.432C296.416 273.211 295.349 277.52 293.301 281.36C291.338 285.115 288.565 288.357 284.981 291.088C281.397 293.733 277.216 295.781 272.437 297.232C267.658 298.597 262.453 299.28 256.821 299.28ZM333.185 298C331.734 298 330.582 297.616 329.729 296.848C328.876 296.08 328.278 295.184 327.937 294.16L301.825 212.24C301.654 211.813 301.569 211.429 301.569 211.088C301.569 210.405 301.825 209.808 302.337 209.296C302.934 208.699 303.617 208.4 304.385 208.4H320.257C321.622 208.4 322.689 208.784 323.457 209.552C324.225 210.32 324.694 211.045 324.865 211.728L342.913 270.864L361.089 211.728C361.345 211.045 361.814 210.32 362.497 209.552C363.265 208.784 364.332 208.4 365.697 208.4H381.569C382.337 208.4 382.977 208.699 383.489 209.296C384.086 209.808 384.385 210.405 384.385 211.088C384.385 211.429 384.3 211.813 384.129 212.24L358.017 294.16C357.676 295.184 357.078 296.08 356.225 296.848C355.457 297.616 354.305 298 352.769 298H333.185Z" fill="#7E22CE"/>
</svg>
